<?xml version="1.0" encoding="utf-8"?>
<!-- Generator: Adobe Illustrator 22.1.0, SVG Export Plug-In . SVG Version: 6.00 Build 0)  -->
<svg version="1.1" id="Layer_1" xmlns="http://www.w3.org/2000/svg" xmlns:xlink="http://www.w3.org/1999/xlink" x="0px" y="0px"
	 viewBox="0 0 841.9 595.3" style="enable-background:new 0 0 841.9 595.3;" xml:space="preserve">
<style type="text/css">
	.st0{display:none;fill:#FFFFFF;stroke:#000000;stroke-width:3;stroke-miterlimit:10;}
	.st1{fill:#FFFFFF;stroke:#000000;stroke-width:2;stroke-miterlimit:10;}
	.st2{fill:#FFFFFF;}
	.st3{fill:none;}
	.st4{fill:none;stroke:#000000;stroke-width:4;stroke-miterlimit:10;}
	.st5{fill:#FFFFFF;stroke:#009FE3;stroke-miterlimit:10;}
	.st6{fill:#536023;}
	.st7{fill:#FFFFFF;stroke:#000000;stroke-width:4;stroke-miterlimit:10;}
	.st8{fill:none;stroke:#647828;stroke-width:5;stroke-miterlimit:10;}
	.st9{fill:#FFFFFF;stroke:#647828;stroke-width:5;stroke-miterlimit:10;}
	.st10{fill:#859B28;}
	.st11{fill:#647828;}
	.st12{fill:#AFCA17;}
</style>
<circle class="st0" cx="371.1" cy="256.1" r="3.7"/>
<g>
	<g>
		<path class="st1" d="M306.9,76.3"/>
	</g>
	<g>
		<path class="st1" d="M342.9,76.3"/>
	</g>
	<g>
		<g>
			<path class="st2" d="M376.7,227.7v30.1H372v-30.1h-10.9v-4.2h27v4.2H376.7z"/>
		</g>
		<g>
			<path class="st2" d="M426.1,257.8h-5.3l-8.4-25.1l-8.8,25.1h-5.2l13.6-34.8h1.2L426.1,257.8z"/>
		</g>
		<g>
			<path class="st2" d="M461.3,224.7l-1.6,4c-1.5-1.1-3.9-1.6-7.1-1.6c-3,0-5.4,1.3-7.3,3.9s-2.7,5.9-2.7,10c0,3.9,0.9,7.1,2.8,9.5
				s4.3,3.6,7.2,3.6c3.2,0,5.7-1.1,7.4-3.4l2.6,3.6c-2.7,2.7-6.2,4.1-10.5,4.1c-4.5,0-8-1.6-10.6-4.9s-3.9-7.5-3.9-12.8
				c0-5.1,1.4-9.4,4.1-12.8s6.3-5.1,10.7-5.1C456.3,222.9,459.2,223.5,461.3,224.7z"/>
		</g>
		<g>
			<path class="st2" d="M476.1,256.2l1.7-4.3c0.9,0.6,2,1.2,3.3,1.6s2.5,0.6,3.5,0.6c1.8,0,3.3-0.5,4.4-1.5s1.7-2.3,1.7-3.8
				c0-1.2-0.3-2.2-0.9-3.2s-2.2-2.1-4.7-3.2l-2.8-1.3c-2.3-1.1-4-2.4-4.9-3.9s-1.4-3.3-1.4-5.4c0-2.6,0.9-4.7,2.7-6.4s4.1-2.5,7-2.5
				c3.8,0,6.4,0.6,7.9,1.9l-1.4,4.1c-0.6-0.5-1.6-0.9-2.9-1.3s-2.5-0.6-3.6-0.6c-1.6,0-2.8,0.5-3.8,1.4s-1.4,2.1-1.4,3.5
				c0,0.9,0.2,1.7,0.5,2.4s0.8,1.3,1.4,1.8s1.8,1.2,3.6,2l2.8,1.3c2.3,1.1,4,2.4,4.9,4s1.4,3.5,1.4,5.9c0,2.6-1,4.8-3.1,6.6
				s-4.8,2.7-8.3,2.7C480.9,258.4,478.3,257.6,476.1,256.2z"/>
		</g>
	</g>
	<g>
		<g>
			<g>
				<path class="st3" d="M423.5,172.6l-5.9-30.3c-7-11.3-25.5-11.3-33.2,0.1l-6.9,30.4"/>
			</g>
		</g>
		<g>
			<g>
				<path class="st2" d="M378.8,173l-2.6-0.6l7-30.7l0.1-0.2c3.9-5.9,10.8-9.3,18.4-9.2c7.2,0.1,13.6,3.5,17,9.1l0.1,0.2l6,30.6
					l-2.6,0.5l-5.9-30.1c-3-4.7-8.5-7.5-14.7-7.6c-6.6-0.1-12.6,2.8-16,7.8L378.8,173z"/>
			</g>
		</g>
		<g>
			<g>
				<path class="st2" d="M412.5,136.2h-2.1c0-3.5-1.9-6.5-4.1-6.5H397c-2.2,0-4.1,3-4.1,6.5h-2.1c0-4.8,2.8-8.6,6.2-8.6h9.4
					C409.8,127.5,412.5,131.4,412.5,136.2z"/>
			</g>
		</g>
		<g>
			<g>
				<path class="st4" d="M377.5,172.7"/>
			</g>
		</g>
		<g>
			<g>
				<path class="st3" d="M433.3,172.6l5.9-30.3c7-11.3,25.5-11.3,33.2,0.1l6.9,30.4"/>
			</g>
		</g>
		<g>
			<g>
				<path class="st2" d="M478.1,173l-6.9-30.2c-3.5-5-9.4-7.9-16-7.8c-6.2,0.1-11.7,3-14.7,7.6l-5.9,30.1l-2.6-0.5l6-30.6l0.1-0.2
					c3.4-5.6,9.8-9,17-9.1c7.6-0.1,14.5,3.3,18.4,9.2l0.1,0.2l7,30.7L478.1,173z"/>
			</g>
		</g>
		<g>
			<g>
				<path class="st4" d="M479.3,172.7"/>
			</g>
		</g>
		<g>
			<g>
				<path class="st5" d="M433.1,172.7"/>
			</g>
		</g>
		<g>
			<g>
				<circle class="st6" cx="456.2" cy="177.2" r="4.6"/>
			</g>
		</g>
		<g>
			<g>
				<path class="st7" d="M479.3,179.5"/>
			</g>
		</g>
		<g>
			<g>
				<path class="st8" d="M456.3,168.1"/>
			</g>
		</g>
		<g>
			<g>
				<path class="st2" d="M466.2,136.2h-2.1c0-3.5-1.9-6.5-4.1-6.5h-9.4c-2.2,0-4.1,3-4.1,6.5h-2.1c0-4.8,2.8-8.6,6.2-8.6h9.4
					C463.4,127.5,466.2,131.4,466.2,136.2z"/>
			</g>
		</g>
		<g>
			<g>
				<path class="st2" d="M392.4,176.9h-2.6c0-5.6,4.5-10.1,10.1-10.1v2.6C395.7,169.5,392.4,172.8,392.4,176.9z"/>
			</g>
		</g>
		<g>
			<g>
				<path class="st9" d="M446.8,176.8"/>
			</g>
		</g>
		<g>
			<g>
				<path class="st2" d="M418.3,147.1c5.4-5.5,14.3-5.5,19.8,0l-1.4,1.4c-4.7-4.7-12.4-4.7-17,0"/>
			</g>
		</g>
		<g>
			<g>
				<path class="st2" d="M436.8,148.8l-0.2-0.2c-4.6-4.6-12.1-4.6-16.7,0l-0.4-0.4c4.7-4.8,12.4-4.8,17.2-0.2l1-1
					c-5.4-5.2-13.9-5.1-19.2,0.2l-0.4-0.4c5.5-5.6,14.6-5.6,20.2,0l0.2,0.2L436.8,148.8z"/>
			</g>
		</g>
		<g>
			<g>
				<path class="st2" d="M420.4,157.3c4.3-4.4,11.4-4.4,15.7,0l-1.1,1.1c-3.7-3.7-9.8-3.7-13.6,0"/>
			</g>
		</g>
		<g>
			<g>
				<path class="st2" d="M435,159.1l-0.4-0.4c-3.5-3.5-9.2-3.5-12.7,0l-0.8-0.8c3.8-3.8,10-4,13.9-0.4l0.3-0.3
					c-1.9-1.7-4.4-2.7-7.1-2.7c-2.8,0-5.5,1.1-7.5,3.1l-0.8-0.8c2.2-2.2,5.1-3.4,8.3-3.4c0,0,0,0,0,0c3.1,0,6.1,1.2,8.3,3.4l0.4,0.4
					L435,159.1z"/>
			</g>
		</g>
		<g>
			<g>
				<path class="st2" d="M456.2,194.9c-9.8,0-17.8-8-17.8-17.8c0-9.8,8-17.8,17.8-17.8v2.7c-8.3,0-15.1,6.8-15.1,15.1
					c0,8.3,6.8,15.1,15.1,15.1c8.3,0,15.1-6.8,15.1-15.1h2.7C474,187,466,194.9,456.2,194.9z"/>
			</g>
		</g>
		<g>
			<g>
				<path class="st2" d="M400.5,194.9c-9.8,0-17.8-8-17.8-17.8c0-9.8,8-17.8,17.8-17.8c9.8,0,17.8,8,17.8,17.8
					C418.3,187,410.3,194.9,400.5,194.9z M400.5,162.1c-8.3,0-15.1,6.8-15.1,15.1c0,8.3,6.8,15.1,15.1,15.1
					c8.3,0,15.1-6.8,15.1-15.1C415.6,168.9,408.8,162.1,400.5,162.1z"/>
			</g>
		</g>
		<g>
			<g>
				<path class="st10" d="M474,177.2h-2.7c0-8.3-6.8-15.1-15.1-15.1v-2.7C466,159.4,474,167.4,474,177.2z"/>
			</g>
		</g>
		<g>
			<g>
				<path class="st11" d="M466.7,177.2h-2.2c0-4.6-3.7-8.3-8.3-8.3v-2.2C462,166.7,466.7,171.4,466.7,177.2z"/>
			</g>
		</g>
		<g>
			<g>
				<path class="st2" d="M456.2,202.6c-14,0-25.5-11.4-25.5-25.5c0-14,11.4-25.5,25.5-25.5v3.6c-12.1,0-21.9,9.8-21.9,21.9
					s9.8,21.9,21.9,21.9c12.1,0,21.9-9.8,21.9-21.9h3.6C481.7,191.2,470.3,202.6,456.2,202.6z"/>
			</g>
		</g>
		<g>
			<g>
				<path class="st2" d="M400.5,202.6c-14,0-25.5-11.4-25.5-25.5c0-14,11.4-25.5,25.5-25.5s25.5,11.4,25.5,25.5
					C426,191.2,414.6,202.6,400.5,202.6z M400.5,155.3c-12.1,0-21.9,9.8-21.9,21.9s9.8,21.9,21.9,21.9c12.1,0,21.9-9.8,21.9-21.9
					S412.6,155.3,400.5,155.3z"/>
			</g>
		</g>
		<g>
			<g>
				<path class="st12" d="M481.7,177.2h-3.6c0-12.1-9.8-21.9-21.9-21.9v-3.6C470.3,151.7,481.7,163.1,481.7,177.2z"/>
			</g>
		</g>
	</g>
</g>
</svg>
