<?xml version="1.0" encoding="utf-8"?>
<!-- Generator: Adobe Illustrator 22.1.0, SVG Export Plug-In . SVG Version: 6.00 Build 0)  -->
<svg version="1.1" id="Layer_1" xmlns="http://www.w3.org/2000/svg" xmlns:xlink="http://www.w3.org/1999/xlink" x="0px" y="0px"
	 viewBox="0 0 841.9 595.3" style="enable-background:new 0 0 841.9 595.3;" xml:space="preserve">
<style type="text/css">
	.st0{fill:none;}
	.st1{fill:#FFFFFF;}
	.st2{fill:none;stroke:#000000;stroke-width:4;stroke-miterlimit:10;}
	.st3{fill:#FFFFFF;stroke:#009FE3;stroke-miterlimit:10;}
	.st4{fill:#536023;}
	.st5{fill:#FFFFFF;stroke:#000000;stroke-width:4;stroke-miterlimit:10;}
	.st6{fill:none;stroke:#647828;stroke-width:5;stroke-miterlimit:10;}
	.st7{fill:#FFFFFF;stroke:#647828;stroke-width:5;stroke-miterlimit:10;}
	.st8{fill:#859B28;}
	.st9{fill:#647828;}
	.st10{fill:#AFCA17;}
</style>
<g>
	<g>
		<path class="st0" d="M410.4,314.4l-13.2-67.6c-15.5-25.1-56.8-25.2-73.8,0.2l-15.4,67.7"/>
	</g>
	<g>
		<path class="st1" d="M310.8,315.4l-5.7-1.3l15.5-68.3l0.3-0.5c8.8-13.1,24.1-20.7,40.9-20.4c16,0.3,30.2,7.9,37.8,20.2l0.3,0.5
			l13.3,68.1l-5.8,1.1l-13.1-67c-6.7-10.4-18.8-16.8-32.7-17c-14.7-0.3-28,6.2-35.6,17.3L310.8,315.4z"/>
	</g>
	<g>
		<path class="st1" d="M386,233.3h-4.7c0-7.9-4.2-14.5-9.2-14.5h-20.9c-5,0-9.2,6.6-9.2,14.5h-4.7c0-10.6,6.2-19.2,13.9-19.2h20.9
			C379.7,214.1,386,222.7,386,233.3z"/>
	</g>
	<g>
		<path class="st2" d="M307.9,314.8"/>
	</g>
	<g>
		<path class="st0" d="M432.2,314.4l13.2-67.6c15.5-25.1,56.8-25.2,73.8,0.2l15.4,67.7"/>
	</g>
	<g>
		<path class="st1" d="M531.8,315.4l-15.3-67.2c-7.7-11.1-21-17.6-35.6-17.3c-13.8,0.3-26,6.6-32.7,17l-13.1,67l-5.8-1.1l13.3-68.1
			l0.3-0.5c7.6-12.4,21.8-20,37.8-20.2c16.9-0.3,32.2,7.3,40.9,20.4l0.3,0.5l15.5,68.3L531.8,315.4z"/>
	</g>
	<g>
		<path class="st2" d="M534.7,314.8"/>
	</g>
	<g>
		<path class="st3" d="M431.8,314.8"/>
	</g>
	<g>
		<circle class="st4" cx="483.2" cy="324.6" r="10.2"/>
	</g>
	<g>
		<path class="st5" d="M534.6,329.7"/>
	</g>
	<g>
		<path class="st6" d="M483.4,304.4"/>
	</g>
	<g>
		<path class="st1" d="M505.4,233.3h-4.7c0-7.9-4.2-14.5-9.2-14.5h-20.9c-5,0-9.2,6.6-9.2,14.5h-4.7c0-10.6,6.2-19.2,13.9-19.2h20.9
			C499.2,214.1,505.4,222.7,505.4,233.3z"/>
	</g>
	<g>
		<path class="st1" d="M341,324.1h-5.9c0-12.4,10.1-22.5,22.5-22.5v5.9C348.5,307.5,341,314.9,341,324.1z"/>
	</g>
	<g>
		<path class="st7" d="M462.2,323.7"/>
	</g>
	<g>
		<path class="st1" d="M398.8,257.7c12.1-12.2,31.9-12.2,44.1-0.1l-3.1,3.1c-10.5-10.4-27.5-10.4-37.9,0.1"/>
	</g>
	<g>
		<path class="st1" d="M439.8,261.5l-0.4-0.4c-10.3-10.2-26.9-10.2-37.1,0.1l-0.8-0.8c10.5-10.6,27.6-10.8,38.4-0.5l2.2-2.2
			c-12-11.5-31.1-11.3-42.8,0.5l-0.8-0.8c12.4-12.4,32.5-12.5,44.9-0.1l0.4,0.4L439.8,261.5z"/>
	</g>
	<g>
		<path class="st1" d="M403.4,280.3c9.6-9.7,25.4-9.7,35.1-0.1l-2.4,2.4c-8.3-8.3-21.9-8.3-30.2,0.1"/>
	</g>
	<g>
		<path class="st1" d="M436,284.5l-0.9-0.9c-7.8-7.8-20.6-7.8-28.4,0.1l-1.8-1.8c8.5-8.5,22.2-8.9,31.1-1l0.6-0.6
			c-4.3-3.9-9.9-5.9-15.7-6c-6.3,0-12.2,2.5-16.6,6.9l-1.8-1.8c4.9-4.9,11.4-7.7,18.4-7.7c0,0,0,0,0.1,0c6.9,0,13.5,2.7,18.4,7.6
			l0.9,0.9L436,284.5z"/>
	</g>
	<g>
		<path class="st1" d="M483.2,364.2c-21.8,0-39.5-17.7-39.5-39.5c0-21.8,17.7-39.5,39.5-39.5v6c-18.5,0-33.5,15-33.5,33.5
			c0,18.5,15,33.5,33.5,33.5c18.5,0,33.5-15,33.5-33.5h6C522.7,346.4,505,364.2,483.2,364.2z"/>
	</g>
	<g>
		<path class="st1" d="M359.2,364.2c-21.8,0-39.5-17.7-39.5-39.5c0-21.8,17.7-39.5,39.5-39.5s39.5,17.7,39.5,39.5
			C398.7,346.4,381,364.2,359.2,364.2z M359.2,291.1c-18.5,0-33.5,15-33.5,33.5c0,18.5,15,33.5,33.5,33.5s33.5-15,33.5-33.5
			C392.7,306.2,377.6,291.1,359.2,291.1z"/>
	</g>
	<g>
		<path class="st8" d="M522.7,324.6h-6c0-18.5-15-33.5-33.5-33.5v-6C505,285.1,522.7,302.8,522.7,324.6z"/>
	</g>
	<g>
		<path class="st9" d="M506.6,324.6h-5c0-10.1-8.3-18.4-18.4-18.4v-5C496.1,301.2,506.6,311.7,506.6,324.6z"/>
	</g>
	<g>
		<path class="st1" d="M483.2,381.4c-31.3,0-56.7-25.4-56.7-56.7c0-31.3,25.4-56.7,56.7-56.7v8c-26.9,0-48.7,21.9-48.7,48.7
			c0,26.9,21.9,48.7,48.7,48.7s48.7-21.9,48.7-48.7h8C539.9,355.9,514.5,381.4,483.2,381.4z"/>
	</g>
	<g>
		<path class="st1" d="M359.2,381.4c-31.3,0-56.7-25.4-56.7-56.7c0-31.3,25.4-56.7,56.7-56.7s56.7,25.4,56.7,56.7
			C415.9,355.9,390.4,381.4,359.2,381.4z M359.2,275.9c-26.9,0-48.7,21.9-48.7,48.7c0,26.9,21.9,48.7,48.7,48.7s48.7-21.9,48.7-48.7
			C407.9,297.8,386,275.9,359.2,275.9z"/>
	</g>
	<g>
		<path class="st10" d="M539.9,324.6h-8c0-26.9-21.9-48.7-48.7-48.7v-8C514.5,267.9,539.9,293.4,539.9,324.6z"/>
	</g>
</g>
</svg>
